<svg id="Layer_1" data-name="Layer 1" xmlns="http://www.w3.org/2000/svg" viewBox="0 0 1080 800"><defs><style>.cls-1{opacity:0.36;}.cls-2,.cls-7{opacity:0.45;}.cls-3{fill:#dedee9;}.cls-4{fill:#748ade;}.cls-5{opacity:0.1;}.cls-6{fill:#1d0347;}.cls-7{fill:#fff;}.cls-12,.cls-8{fill:#0d72d6;}.cls-9{fill:#e51f0a;}.cls-10,.cls-11{fill:#f2d10f;}.cls-11{font-size:119.39px;font-family:Montserrat-Regular, Montserrat;}.cls-12{font-size:224.31px;font-family:Montserrat-Bold, Montserrat;font-weight:700;}.cls-13{fill:#ff3833;}</style></defs><g class="cls-1"><path class="cls-2" d="M838.13,397.61l4.07.65a6,6,0,0,0,8.48,5l20.85,25.18,6.78-7.81-8-26.54L869.06,390a29.44,29.44,0,0,0,1.7-2.58l34.39-60.18,6.37,4.79,13.55,10.19,30.45,40.28c.1.15.21.28.32.43h0l13.49,17.83c-.1.56-.21,1.12-.31,1.68l-1,5.47c-.08.41-.16.83-.23,1.24l4.17-7.3,1-3,3.57-10.65s0,0,0-.05l-10.34-23.27,0,.05q-5.77-13-11.56-25.9l-8.19-18.34a7.34,7.34,0,0,0,1.92-2.21l9.45-16.53-12.94-7.39-5.66,9.91c-.24-.54-.48-1.08-.73-1.61-1.49-3.36-3-6.7-4.48-10l-2.73-6.11-1.26-2.83,24.53-42.92a20,20,0,0,0,2.62-9.18l.68-17.87A4.4,4.4,0,0,0,951,210l-15.06,9.66a20.06,20.06,0,0,0-6.57,6.92l-24.53,42.92-3.08.35-6.66.75-10.93,1.23-1.76.2,5.67-9.92-12.94-7.39-9.45,16.53a7.49,7.49,0,0,0-.92,2.77l-20,2.26-28.18,3.18,0,0-25.29,2.9h-.05l-7.37,8.49-2.07,2.38-4.17,7.3.95-.84,4.19-3.65,1.29-1.12,22.22,2.57h0c.18,0,.35.05.53.06L857,303.3l15.66,6.5,7.36,3.06L845.67,373a26.49,26.49,0,0,0-1.25,2.5l-4.57,1.11-26.93,6.57-3.28,9.8,28.49,4.59Z"/><rect class="cls-2" x="950.39" y="289.15" width="3.61" height="14.9" transform="translate(222.2 976.13) rotate(-60.25)"/><rect class="cls-2" x="880.74" y="249.34" width="3.61" height="14.9" transform="translate(221.67 895.6) rotate(-60.25)"/></g><polygon class="cls-3" points="880.17 388.72 889.73 420.36 882.95 428.16 861.32 402.06 880.17 388.72"/><polygon class="cls-4" points="884.76 426.08 864.47 399.83 861.32 402.06 882.95 428.16 884.76 426.08"/><polygon class="cls-5" points="881.71 393.82 864.53 405.94 861.32 402.06 880.17 388.72 881.71 393.82"/><polygon class="cls-3" points="856.44 375.16 824.33 382.98 821.05 392.79 854.52 398.17 856.44 375.16"/><polygon class="cls-4" points="821.93 390.17 854.84 394.33 854.52 398.17 821.05 392.79 821.93 390.17"/><polygon class="cls-5" points="851.27 376.42 849.55 397.37 854.52 398.17 856.44 375.16 851.27 376.42"/><path class="cls-3" d="M857.08,372.8l83.7-146.44a20,20,0,0,1,6.58-6.93l15-9.65a4.39,4.39,0,0,1,6.76,3.86l-.67,17.87a20.21,20.21,0,0,1-2.63,9.19l-83.7,146.44a26.24,26.24,0,0,1-9.38,9.54l-10.13,6a6,6,0,0,1-9.08-5.18l0-11.8A26.28,26.28,0,0,1,857.08,372.8Z"/><path class="cls-6" d="M964.2,235.28a20.12,20.12,0,0,0,1.14-2.76,6,6,0,0,0-1.67-6.31,25.37,25.37,0,0,0-9.13-5.32,6,6,0,0,0-6.31,1.64,20,20,0,0,0-1.84,2.36A20.06,20.06,0,0,1,964.2,235.28Z"/><rect class="cls-7" x="823.43" y="310.63" width="169.33" height="4.06" rx="2.03" transform="translate(1630.15 -320.6) rotate(119.75)"/><path class="cls-3" d="M979.17,408.89c.08-.41.16-.83.23-1.25l1-5.46c.11-.56.22-1.12.32-1.68l-13.5-17.83v0l-.32-.42L936.48,342l-13.55-10.2L916.56,327l24.78-43.35,1.26,2.84,2.73,6.11,4.49,10q2,4.5,4,9c1.17,2.61,2.33,5.21,3.49,7.82L966,338.77q5.79,13,11.57,25.9l0,0,10.34,23.27,0,0-3.57,10.66-1,3Z"/><path class="cls-4" d="M979.17,408.89c.08-.41.16-.83.23-1.25l1-5.46c.11-.56.22-1.12.32-1.68l-13.5-17.83v0l-.32-.42L936.48,342l-13.55-10.2L916.56,327l9.35-16.34,5.65,6,17,18.08,36.15,59.15s-.15,2-.34,4.72l-1,3Z"/><path class="cls-5" d="M922.93,331.75,916.56,327l24.78-43.35,1.26,2.84,2.73,6.11Z"/><path class="cls-5" d="M947.62,321.47a7.46,7.46,0,0,1-2.77-10.17l5-8.7q2,4.5,4,9c1.17,2.61,2.33,5.21,3.49,7.82A7.46,7.46,0,0,1,947.62,321.47Z"/><path class="cls-3" d="M942.86,302.05h19a7.45,7.45,0,0,1,7.45,7.45v0A7.45,7.45,0,0,1,961.9,317h-19a0,0,0,0,1,0,0v-14.9A0,0,0,0,1,942.86,302.05Z" transform="translate(1699.24 -367.01) rotate(119.75)"/><rect class="cls-4" x="961.8" y="288.92" width="3.61" height="14.9" transform="translate(1699.07 -393.18) rotate(119.75)"/><rect class="cls-7" x="942.73" y="309.89" width="24.83" height="3.16" rx="1.58" transform="translate(1699.52 -363.24) rotate(119.75)"/><path class="cls-3" d="M789.11,300.27l1-.84,4.19-3.65,1.29-1.13,22.21,2.58h0l.52.06,50.17,5.79,15.66,6.5,7.36,3.06,24.77-43.35-3.08.34c-2.22.25-4.43.51-6.65.75l-10.93,1.24-9.79,1.1-8.5,1-21.07,2.39L828,279.24l0,0-25.3,2.9h0l-7.37,8.49L793.28,293Z"/><path class="cls-4" d="M789.11,300.27l1-.84,4.19-3.65,1.29-1.13,22.21,2.58h0l.52.06,50.17,5.79,15.66,6.5,7.36,3.06,9.34-16.35-8.07-1.81L868.56,289l-69.31-1.13-3.9,2.69L793.28,293Z"/><path class="cls-5" d="M884.12,309.57l7.36,3.06,24.77-43.35-3.08.34c-2.22.25-4.43.51-6.65.75Z"/><path class="cls-5" d="M880.45,283.08a7.45,7.45,0,0,0,10.16-2.77l5-8.7-9.79,1.1-8.5,1A7.46,7.46,0,0,0,880.45,283.08Z"/><path class="cls-3" d="M873.21,262.24h19a7.45,7.45,0,0,1,7.45,7.45v0a7.45,7.45,0,0,1-7.45,7.45h-19a0,0,0,0,1,0,0v-14.9A0,0,0,0,1,873.21,262.24Z" transform="translate(1560.47 -366.1) rotate(119.75)"/><rect class="cls-4" x="892.15" y="249.11" width="3.61" height="14.9" transform="translate(1560.29 -392.27) rotate(119.75)"/><rect class="cls-7" x="872.82" y="269.93" width="24.83" height="3.16" rx="1.58" transform="translate(1560.23 -362.33) rotate(119.75)"/><path class="cls-8" d="M222.91,402.17C250.65,515.62,413.53,695,640.69,609.84c-91.45,11.4-186.1-26.48-244.66-107.69a271.21,271.21,0,0,1-42.59-91c48.33,90.45,142.05,151.94,250,151.94,106.53,0,199.35-59.8,248.22-148.32C800,577.42,650.67,695,474.36,695c-180.83,0-333.29-123.74-381-292.86Z"/><path class="cls-9" d="M767.83,429.72a18,18,0,1,0,18-18.37A18.17,18.17,0,0,0,767.83,429.72Z"/><path class="cls-8" d="M904.66,411.35a9,9,0,1,0,9-9.18A9.08,9.08,0,0,0,904.66,411.35Z"/><path class="cls-10" d="M854.54,497.4c0,15.67,12.43,28.38,27.76,28.38s27.76-12.71,27.76-28.38S897.63,469,882.3,469,854.54,481.73,854.54,497.4Z"/><path class="cls-10" d="M640.69,609.84C549.24,621.24,454.58,583.36,396,502.15a271.21,271.21,0,0,1-42.59-91c48.33,90.45,142.05,151.94,250,151.94,106.53,0,199.35-59.8,248.22-148.32C801.58,554.84,640.69,609.84,640.69,609.84Z"/><text class="cls-11" transform="translate(89.34 390.35)">HOLIDAYS</text><text class="cls-12" transform="translate(75.3 288.14)">EU<tspan class="cls-13" x="315.15" y="0">R</tspan><tspan x="476.65" y="0">O</tspan></text></svg>