<svg id="Layer_1" data-name="Layer 1" xmlns="http://www.w3.org/2000/svg" viewBox="0 0 800 100"><defs><style>.cls-1{opacity:0.36;}.cls-2,.cls-7{opacity:0.45;}.cls-11,.cls-12,.cls-13,.cls-14,.cls-2,.cls-5,.cls-7{isolation:isolate;}.cls-3{fill:#dedee9;}.cls-4{fill:#748ade;}.cls-5{opacity:0.1;}.cls-6{fill:#1d0347;}.cls-7{fill:#fff;}.cls-13,.cls-15,.cls-8{fill:#0d72d6;}.cls-9{fill:#e51f0a;}.cls-10,.cls-11{fill:#f2d10f;}.cls-11{font-size:18.56px;font-family:Montserrat-Regular, Montserrat;}.cls-13,.cls-14{font-size:34.86px;}.cls-13,.cls-14,.cls-15{font-family:Montserrat-Bold, Montserrat;font-weight:700;}.cls-14{fill:#ff3833;}.cls-15{font-size:88.58px;}</style></defs><g class="cls-1"><path class="cls-2" d="M134.61,53l.64.1a.92.92,0,0,0,1,.86,1.25,1.25,0,0,0,.32-.08l3.24,3.91,1.05-1.21-1.24-4.13-.2-.63a3.51,3.51,0,0,0,.27-.4L145,42l1,.75,2.11,1.58,4.73,6.26,0,.07h0l2.1,2.77a2.38,2.38,0,0,0,0,.26l-.16.85,0,.19.65-1.13.15-.47.56-1.65h0l-1.61-3.62h0l-1.8-4L151.45,41a1.22,1.22,0,0,0,.3-.34l1.47-2.57-2-1.15-.88,1.54-.12-.25-.69-1.55-.43-1-.19-.44,3.81-6.67a3.15,3.15,0,0,0,.41-1.43l.1-2.78a.69.69,0,0,0-1.06-.61l-2.34,1.5a3,3,0,0,0-1,1.08L145,33.07l-.48,0-1,.12-1.7.19-.27,0,.88-1.54-2-1.15-1.47,2.57a1,1,0,0,0-.14.43l-3.11.35-4.38.5h0l-3.93.45h0l-1.15,1.32-.32.37-.65,1.13.15-.13.65-.57.2-.17,3.46.4h.08l7.8.89,2.43,1,1.15.48-5.34,9.35a2.75,2.75,0,0,0-.2.38l-.71.18-4.18,1-.51,1.52,4.42.71Z"/><rect class="cls-2" x="152.06" y="36.12" width="0.56" height="2.32" transform="translate(44.38 151.05) rotate(-60.25)"/><rect class="cls-2" x="141.24" y="29.94" width="0.56" height="2.32" transform="matrix(0.5, -0.87, 0.87, 0.5, 44.3, 138.53)"/></g><polygon class="cls-3" points="141.15 51.6 142.63 56.52 141.58 57.73 138.22 53.67 141.15 51.6"/><polygon class="cls-4" points="141.86 57.41 138.71 53.33 138.22 53.67 141.58 57.73 141.86 57.41"/><polygon class="cls-5" points="141.39 52.39 138.72 54.27 138.22 53.67 141.15 51.6 141.39 52.39"/><polygon class="cls-3" points="137.46 49.49 132.47 50.71 131.96 52.23 137.16 53.07 137.46 49.49"/><polygon class="cls-4" points="132.1 51.82 137.21 52.47 137.16 53.07 131.96 52.23 132.1 51.82"/><polygon class="cls-5" points="136.66 49.69 136.39 52.94 137.16 53.07 137.46 49.49 136.66 49.69"/><path class="cls-3" d="M137.56,49.12l13-22.76a3.16,3.16,0,0,1,1-1.07l2.33-1.5a.68.68,0,0,1,1,.2.7.7,0,0,1,.1.4l-.1,2.77a3.08,3.08,0,0,1-.41,1.43l-13,22.76A4,4,0,0,1,140,52.84l-1.57.93A.93.93,0,0,1,137,53V51.13A4.15,4.15,0,0,1,137.56,49.12Z"/><path class="cls-6" d="M154.21,27.75a3.25,3.25,0,0,0,.18-.43,1,1,0,0,0-.26-1,4.15,4.15,0,0,0-1.42-.83,1,1,0,0,0-1,.26,3.26,3.26,0,0,0-.29.36A3.12,3.12,0,0,1,154.21,27.75Z"/><path class="cls-7" d="M152.14,28.78l-12.75,22.3a.31.31,0,0,1-.43.12h0a.31.31,0,0,1-.12-.43l12.75-22.3a.32.32,0,0,1,.43-.12h0A.32.32,0,0,1,152.14,28.78Z"/><path class="cls-3" d="M156.54,54.73l0-.19.16-.85a2.38,2.38,0,0,1,.05-.26l-2.1-2.77h0l-.05-.07-4.73-6.25-2.1-1.59-1-.74,3.86-6.74.19.44.43.95.69,1.55.63,1.4.54,1.22,1.35,3,1.8,4h0l1.6,3.62h0l-.55,1.65-.16.47Z"/><path class="cls-4" d="M156.54,54.73l0-.19.16-.85a2.38,2.38,0,0,1,.05-.26l-2.1-2.77h0l-.05-.07-4.73-6.25-2.1-1.59-1-.74,1.46-2.54.88.93,2.64,2.81,5.62,9.19s0,.31-.06.74l-.15.46Z"/><path class="cls-5" d="M147.8,42.74l-1-.73,3.86-6.74.19.44.43.95Z"/><path class="cls-5" d="M151.63,41.15a1.17,1.17,0,0,1-.43-1.58l.78-1.36.62,1.4.54,1.22A1.17,1.17,0,0,1,151.63,41.15Z"/><path class="cls-3" d="M155,38.07l-1.47,2.57a1.17,1.17,0,0,1-1.58.43h0a1.16,1.16,0,0,1-.44-1.58h0L153,36.93h0l2,1.14Z"/><rect class="cls-4" x="153.84" y="36.08" width="0.56" height="2.32" transform="translate(45.31 152.57) rotate(-60.25)"/><rect class="cls-7" x="150.87" y="39.34" width="3.86" height="0.49" rx="0.25" transform="translate(42.61 152.61) rotate(-60.25)"/><path class="cls-3" d="M127,37.85l.15-.13.65-.57L128,37l3.45.4h.09l7.79.9,2.44,1,1.14.47L146.76,33l-.48.05-1,.12-1.7.19-1.52.17-1.32.15-3.28.38-4.39.48h0l-3.93.45h0L128,36.35l-.32.37Z"/><path class="cls-4" d="M127,37.85l.15-.13.65-.57L128,37l3.45.4h.09l7.79.9,2.44,1,1.14.47,1.45-2.54L143.11,37l-3.77-.85-10.77-.18-.6.42-.33.38Z"/><path class="cls-5" d="M141.76,39.3l1.15.47L146.76,33l-.48.06-1,.11Z"/><path class="cls-5" d="M141.19,35.18a1.16,1.16,0,0,0,1.58-.43l.78-1.35-1.52.17-1.32.15A1.17,1.17,0,0,0,141.19,35.18Z"/><path class="cls-3" d="M144.15,31.89l-1.46,2.56a1.15,1.15,0,0,1-1.58.43h0a1.15,1.15,0,0,1-.43-1.58h0l1.46-2.56h0l2,1.15Z"/><rect class="cls-4" x="143.01" y="29.9" width="0.56" height="2.32" transform="translate(45.22 140.05) rotate(-60.25)"/><rect class="cls-7" x="140.01" y="33.13" width="3.86" height="0.49" rx="0.25" transform="translate(42.53 140.05) rotate(-60.25)"/><path class="cls-8" d="M39,53.69C43.3,71.32,68.62,99.2,103.93,86a40.62,40.62,0,0,1-38-16.74,42,42,0,0,1-6.62-14.14,43.8,43.8,0,0,0,77.44.56c-8,25.28-31.24,43.55-58.65,43.55C50,99.2,26.27,80,18.85,53.68Z"/><path class="cls-9" d="M123.69,58a2.8,2.8,0,1,0,2.8-2.85,2.79,2.79,0,0,0-2.8,2.85Z"/><path class="cls-8" d="M145,55.12a1.4,1.4,0,1,0,1.39-1.43A1.4,1.4,0,0,0,145,55.12Z"/><path class="cls-10" d="M137.17,68.49a4.31,4.31,0,1,0,4.31-4.41A4.36,4.36,0,0,0,137.17,68.49Z"/><path class="cls-10" d="M103.93,86a40.65,40.65,0,0,1-38-16.74,42.41,42.41,0,0,1-6.62-14.14,43.8,43.8,0,0,0,77.44.56C128.93,77.42,103.93,86,103.93,86Z"/><text class="cls-11" transform="translate(18.23 51.85)">HOLIDAYS</text><g class="cls-12"><text class="cls-13" transform="translate(16.05 35.97)">EU</text><text class="cls-14" transform="translate(65.03 35.97)">R</text><text class="cls-13" transform="translate(90.13 35.97)">O</text></g><text class="cls-15" transform="translate(166.6 79.33)">Euro Holidays</text></svg>